<svg xmlns="http://www.w3.org/2000/svg" width="22.214" height="23.135" viewBox="0 0 22.214 23.135">
  <g id="Group_376" data-name="Group 376" transform="translate(-1178.786 -18)">
    <path id="bell_1_" data-name="bell (1)" d="M21,12.674,19.233,6.333a8.647,8.647,0,0,0-16.772.44L1.1,12.909a4.639,4.639,0,0,0,4.528,5.645H6.658a4.639,4.639,0,0,0,9.092,0h.777A4.639,4.639,0,0,0,21,12.674ZM11.2,20.41a2.783,2.783,0,0,1-2.612-1.855h5.225A2.783,2.783,0,0,1,11.2,20.41Zm7.539-4.81a2.762,2.762,0,0,1-2.216,1.1H5.625a2.783,2.783,0,0,1-2.716-3.387L4.272,7.174a6.792,6.792,0,0,1,13.173-.345l1.763,6.342a2.762,2.762,0,0,1-.466,2.429Z" transform="translate(1177.8 18.865)"/>
    <g id="Ellipse_17" data-name="Ellipse 17" transform="translate(1191 18)" fill="#81047f" stroke="#fbfbfb" stroke-width="1">
      <circle cx="5" cy="5" r="5" stroke="none"/>
      <circle cx="5" cy="5" r="4.5" fill="none"/>
    </g>
  </g>
</svg>
