<svg xmlns="http://www.w3.org/2000/svg" width="33.203" height="33.192" viewBox="0 0 33.203 33.192">
  <g id="Revenue" transform="translate(-371.318 -371.16)">
    <path id="Path_87190" data-name="Path 87190" d="M393.2,376.13c0,2.34-4.73,4.23-10.56,4.23-5.51,0-10-1.69-10.52-3.85a1.578,1.578,0,0,1,0-.38c0-2.33,4.73-4.22,10.56-4.22S393.2,373.8,393.2,376.13Z" fill="none" stroke="#7c047a" stroke-linecap="round" stroke-linejoin="round" stroke-width="1.5"/>
    <path id="Path_87191" data-name="Path 87191" d="M391.58,382.6h0a2.91,2.91,0,0,0,1.6-2.24v-4.23c0,2.34-4.73,4.23-10.56,4.23-5.51,0-10-1.69-10.52-3.85V380a1.58,1.58,0,0,0,0,.38c0,2.33,4.73,4.22,10.56,4.22a25.218,25.218,0,0,0,5-.48" fill="none" stroke="#7c047a" stroke-linecap="round" stroke-linejoin="round" stroke-width="1.5"/>
    <path id="Path_87192" data-name="Path 87192" d="M373.51,382.47a2.71,2.71,0,0,0-1.43,2.11,1.581,1.581,0,0,0,0,.38c.48,2.16,5,3.85,10.52,3.85h.9" fill="none" stroke="#7c047a" stroke-linecap="round" stroke-linejoin="round" stroke-width="1.5"/>
    <path id="Path_87193" data-name="Path 87193" d="M391.89,382.56l-.11-.09" fill="none" stroke="#7c047a" stroke-linecap="round" stroke-linejoin="round" stroke-width="1.5"/>
    <path id="Path_87194" data-name="Path 87194" d="M382.64,393c-5.83,0-10.56-1.89-10.56-4.22a1.642,1.642,0,0,1,0-.38V385c.48,2.16,5,3.85,10.52,3.85h.9" fill="none" stroke="#7c047a" stroke-linecap="round" stroke-linejoin="round" stroke-width="1.5"/>
    <path id="Path_87195" data-name="Path 87195" d="M373.51,390.92a2.71,2.71,0,0,0-1.43,2.11,1.58,1.58,0,0,0,0,.38c.48,2.16,5,3.85,10.52,3.85h.88" fill="none" stroke="#7c047a" stroke-linecap="round" stroke-linejoin="round" stroke-width="1.5"/>
    <path id="Path_87196" data-name="Path 87196" d="M383.52,397.24h-.88c-5.51,0-10-1.69-10.52-3.85v3.47a1.642,1.642,0,0,0,0,.38c0,2.33,4.73,4.22,10.56,4.22a24.761,24.761,0,0,0,3.85-.29" fill="none" stroke="#7c047a" stroke-linecap="round" stroke-linejoin="round" stroke-width="1.5"/>
    <path id="Union_78" data-name="Union 78" d="M18114.2,21467.969h-.006a10.543,10.543,0,0,1-5.291-3.225l-.041-.047-.07-.082a10.546,10.546,0,0,1-1.807-2.986l-.053-.139-.02-.049a10.555,10.555,0,0,1,1.52-10.148l.023-.031.023-.029a10.525,10.525,0,0,1,5.043-3.539c.016,0,.029-.01.043-.014l.049-.016.086-.027.01,0a.007.007,0,0,1,.006,0c.125-.039.252-.074.377-.107l0,0,.172-.043a.312.312,0,0,1,.041-.01l.148-.035c.023-.006.049-.012.072-.016l.074-.018a10.526,10.526,0,0,1,5.7.367l.063.021.078.029.135.049.045.018c.043.018.086.035.129.051a.2.2,0,0,1,.029.014l.158.064.025.012c.107.045.215.094.32.145l.031.014c.051.023.1.047.148.072l.035.018c.037.018.074.037.111.057.02.01.039.018.057.027l.121.064.084.045.041.023a10.53,10.53,0,0,1,3.885,3.709c.014.023.029.047.043.07l.027.045a10.568,10.568,0,0,1,1.475,6.084.085.085,0,0,0,0,.01l-.006.088c0,.021,0,.043,0,.064s0,.025,0,.037a10.5,10.5,0,0,1-1.242,4.17c-.012.02-.021.037-.031.057a.085.085,0,0,0-.008.014,10.505,10.505,0,0,1-3.457,3.727l-.025.018c-.02.012-.039.023-.059.037l-.076.049,0,0a10.492,10.492,0,0,1-4.389,1.547l-.008,0a10.6,10.6,0,0,1-1.238.072A10.472,10.472,0,0,1,18114.2,21467.969Z" transform="translate(-17723.598 -21064.693)" fill="none" stroke="#7c047a" stroke-linecap="round" stroke-linejoin="round" stroke-width="1.5"/>
    <path id="Path_87198" data-name="Path 87198" d="M395.32,388.81H393.2a2.11,2.11,0,0,0-2.11,2.11h0A2.11,2.11,0,0,0,393.2,393h0a2.12,2.12,0,0,1,2.12,2.12h0a2.12,2.12,0,0,1-2.12,2.11h-2.11" fill="none" stroke="#7c047a" stroke-linecap="round" stroke-linejoin="round" stroke-width="1.5"/>
    <line id="Line_593" data-name="Line 593" y1="2.11" transform="translate(393.2 386.699)" fill="none" stroke="#7c047a" stroke-linecap="round" stroke-linejoin="round" stroke-width="1.5"/>
    <line id="Line_594" data-name="Line 594" y2="2.11" transform="translate(393.2 397.26)" fill="none" stroke="#7c047a" stroke-linecap="round" stroke-linejoin="round" stroke-width="1.5"/>
  </g>
</svg>
