<svg id="comment-alt" xmlns="http://www.w3.org/2000/svg" width="19.027" height="19.027" viewBox="0 0 19.027 19.027">
  <path id="Path_119" data-name="Path 119" d="M15.856,0H3.171A3.171,3.171,0,0,0,0,3.171v9.514a3.171,3.171,0,0,0,3.171,3.171h2.3L9,18.839a.793.793,0,0,0,1.024,0l3.534-2.983h2.3a3.171,3.171,0,0,0,3.171-3.171V3.171A3.171,3.171,0,0,0,15.856,0Zm1.586,12.685a1.586,1.586,0,0,1-1.586,1.586h-2.3a1.586,1.586,0,0,0-1.024.375L9.514,17.2,6.5,14.646h0a1.586,1.586,0,0,0-1.025-.375h-2.3a1.586,1.586,0,0,1-1.586-1.586V3.171A1.586,1.586,0,0,1,3.171,1.586H15.856a1.586,1.586,0,0,1,1.586,1.586Z"/>
  <path id="Path_120" data-name="Path 120" d="M6.879,6.759h4.4a.879.879,0,0,0,0-1.759h-4.4a.879.879,0,0,0,0,1.759Z" transform="translate(-1.457 -1.075)"/>
  <path id="Path_121" data-name="Path 121" d="M15.673,9H6.879a.879.879,0,0,0,0,1.759h8.794a.879.879,0,1,0,0-1.759Z" transform="translate(-1.763 -1.936)"/>
  <path id="Path_122" data-name="Path 122" d="M15.673,13H6.879a.879.879,0,0,0,0,1.759h8.794a.879.879,0,1,0,0-1.759Z" transform="translate(-1.763 -2.796)"/>
</svg>
