<svg xmlns="http://www.w3.org/2000/svg" width="18.98" height="17.38" viewBox="0 0 18.98 17.38">
  <path id="list-check_1_" data-name="list-check (1)" d="M3.163,4.75a2.358,2.358,0,0,1-1.678-.7L.264,2.968A.791.791,0,0,1,1.317,1.787L2.571,2.9a.791.791,0,0,0,1.151.032L6.572.223a.791.791,0,0,1,1.09,1.145l-2.838,2.7A2.344,2.344,0,0,1,3.163,4.75ZM18.98,3.168a.791.791,0,0,0-.791-.791H10.281a.791.791,0,0,0,0,1.582h7.908A.791.791,0,0,0,18.98,3.168ZM4.824,10.395l2.838-2.7A.791.791,0,1,0,6.572,6.55L3.725,9.263a.809.809,0,0,1-1.118,0L1.35,8.01A.791.791,0,1,0,.231,9.128l1.254,1.253a2.372,2.372,0,0,0,3.342.013Zm14.156-.9a.791.791,0,0,0-.791-.791H10.281a.791.791,0,0,0,0,1.582h7.908A.791.791,0,0,0,18.98,9.495ZM4.824,16.721l2.835-2.7a.791.791,0,1,0-1.09-1.145L3.722,15.59a.791.791,0,0,1-1.151-.032L1.317,14.44A.791.791,0,1,0,.264,15.621l1.221,1.087a2.372,2.372,0,0,0,3.342.013Zm14.156-.9a.791.791,0,0,0-.791-.791H10.281a.791.791,0,0,0,0,1.582h7.908A.791.791,0,0,0,18.98,15.821Z" transform="translate(0.001 -0.023)"/>
</svg>
