<svg xmlns="http://www.w3.org/2000/svg" width="19.5" height="19.5" viewBox="0 0 19.5 19.5">
  <g id="Settings" transform="translate(-2.25 -3.095)">
    <path id="Path_99079" data-name="Path 99079" d="M12,15.191a2.347,2.347,0,1,0-2.347-2.347A2.347,2.347,0,0,0,12,15.191Z" fill="none" stroke="#191919" stroke-linecap="round" stroke-linejoin="round" stroke-width="1.5"/>
    <path id="Path_99080" data-name="Path 99080" d="M18.055,15.3a1.35,1.35,0,0,0,.27,1.489l.049.049a1.637,1.637,0,1,1-2.315,2.315l-.049-.049a1.359,1.359,0,0,0-2.307.965v.139a1.636,1.636,0,1,1-3.273,0v-.074a1.4,1.4,0,0,0-2.373-.965l-.049.049A1.637,1.637,0,1,1,5.692,16.9l.049-.049a1.359,1.359,0,0,0-.965-2.307H4.636a1.636,1.636,0,0,1,0-3.273H4.71A1.4,1.4,0,0,0,5.675,8.9l-.049-.049A1.637,1.637,0,1,1,7.942,6.537l.049.049a1.35,1.35,0,0,0,1.489.27h.065a1.35,1.35,0,0,0,.818-1.235V5.481a1.636,1.636,0,0,1,3.273,0v.074a1.359,1.359,0,0,0,2.307.965l.049-.049a1.637,1.637,0,1,1,2.316,2.315l-.049.049a1.35,1.35,0,0,0-.27,1.489v.066a1.35,1.35,0,0,0,1.235.818h.139a1.636,1.636,0,0,1,0,3.273H19.29a1.35,1.35,0,0,0-1.236.818Z" fill="none" stroke="#191919" stroke-linecap="round" stroke-linejoin="round" stroke-width="1.5"/>
  </g>
</svg>
