<svg xmlns="http://www.w3.org/2000/svg" width="20.5" height="12.421" viewBox="0 0 20.5 12.421">
  <path id="coupon_1_" data-name="coupon (1)" d="M19.371,107.157a.629.629,0,0,0,.629-.629v-3.19a.629.629,0,0,0-.629-.629H.629a.629.629,0,0,0-.629.629v3.19a.629.629,0,0,0,.629.629,1.512,1.512,0,0,1,0,3.023.629.629,0,0,0-.629.629V114a.629.629,0,0,0,.629.629H19.371A.629.629,0,0,0,20,114v-3.19a.629.629,0,0,0-.629-.629,1.512,1.512,0,0,1,0-3.023Zm-18.112,4.21a2.771,2.771,0,0,0,0-5.4v-2H5.976v9.4H1.259Zm17.483,0v2H7.235v-9.4H18.741v2a2.771,2.771,0,0,0,0,5.4Z" transform="translate(0.25 -102.458)" fill="#191919" stroke="#191919" stroke-width="0.5"/>
</svg>
