<svg xmlns="http://www.w3.org/2000/svg" width="16.789" height="15.264" viewBox="0 0 16.789 15.264">
  <path id="Icon_material-translate" data-name="Icon material-translate" d="M10.558,12.974,8.62,11.059l.023-.023a13.369,13.369,0,0,0,2.831-4.983H13.71V4.526H8.368V3H6.842V4.526H1.5V6.045h8.524a11.991,11.991,0,0,1-2.419,4.09A11.939,11.939,0,0,1,5.842,7.579H4.316a13.4,13.4,0,0,0,2.274,3.48L2.706,14.89l1.084,1.084,3.816-3.816,2.373,2.373.58-1.557Zm4.3-3.869H13.329L9.895,18.263h1.526l.855-2.289H15.9l.862,2.289h1.526Zm-2,5.342,1.236-3.3,1.236,3.3Z" transform="translate(-1.5 -3)"/>
</svg>
