<svg xmlns="http://www.w3.org/2000/svg" width="15.734" height="20.5" viewBox="0 0 15.734 20.5">
  <path id="Union_78" data-name="Union 78" d="M-2895.851-6494a2.151,2.151,0,0,1-2.148-2.148v-15.7a2.151,2.151,0,0,1,2.148-2.148h7.171a2.141,2.141,0,0,1,1.476.588l3.767,3.563a2.157,2.157,0,0,1,.672,1.561v12.14a2.15,2.15,0,0,1-2.148,2.148Zm-.977-17.852v15.7a.978.978,0,0,0,.977.977h10.938a.978.978,0,0,0,.977-.977v-11.992h-3.555a1.369,1.369,0,0,1-1.367-1.368v-3.32h-6.992A.978.978,0,0,0-2896.827-6511.852Zm9.141,2.344a.2.2,0,0,0,.2.2h2.917l-3.112-2.944Zm-7.109,10.742a.586.586,0,0,1-.586-.586.586.586,0,0,1,.586-.586h2.84a.586.586,0,0,1,.586.586.586.586,0,0,1-.586.586Zm0-3.125a.586.586,0,0,1-.586-.586.586.586,0,0,1,.586-.586h8.594a.586.586,0,0,1,.586.586.586.586,0,0,1-.586.586Zm0-3.125a.586.586,0,0,1-.586-.586.586.586,0,0,1,.586-.586h8.594a.586.586,0,0,1,.586.586.586.586,0,0,1-.586.586Z" transform="translate(2898.249 6514.25)" fill="#191919" stroke="#191919" stroke-width="0.5"/>
</svg>
