<svg xmlns="http://www.w3.org/2000/svg" width="19" height="19" viewBox="0 0 19 19">
  <path id="usd-circle" d="M9.5,0A9.5,9.5,0,1,0,19,9.5,9.511,9.511,0,0,0,9.5,0Zm0,17.417A7.917,7.917,0,1,1,17.417,9.5,7.926,7.926,0,0,1,9.5,17.417Zm3.167-6.333a2.378,2.378,0,0,1-2.375,2.375v.792a.792.792,0,1,1-1.583,0v-.792H8.5a2.383,2.383,0,0,1-2.057-1.187.791.791,0,1,1,1.37-.793.794.794,0,0,0,.686.4h1.8a.792.792,0,0,0,.792-.792.608.608,0,0,0-.51-.6l-2.407-.4A2.186,2.186,0,0,1,6.333,7.917,2.378,2.378,0,0,1,8.708,5.542V4.75a.792.792,0,1,1,1.583,0v.792H10.5A2.384,2.384,0,0,1,12.56,6.729a.791.791,0,1,1-1.37.792.8.8,0,0,0-.686-.4h-1.8a.792.792,0,0,0-.792.792.608.608,0,0,0,.51.6l2.407.4a2.186,2.186,0,0,1,1.833,2.164Z"/>
</svg>
